<?xml version="1.0" encoding="iso-8859-1"?>
<!-- Generator: Adobe Illustrator 16.0.0, SVG Export Plug-In . SVG Version: 6.00 Build 0)  -->
<!DOCTYPE svg PUBLIC "-//W3C//DTD SVG 1.1//EN" "http://www.w3.org/Graphics/SVG/1.1/DTD/svg11.dtd">
<svg version="1.1" id="Capa_1" xmlns="http://www.w3.org/2000/svg" xmlns:xlink="http://www.w3.org/1999/xlink" x="0px" y="0px"
	 width="612px" height="612px" viewBox="0 0 612 612" style="enable-background:new 0 0 612 612;" xml:space="preserve">
<g>
	<g>
		<path d="M599.3,531.6H12.7C5.6,531.6,0,526,0,518.9V133.8c0-7.1,5.6-12.7,12.7-12.7H153c2.7,0,4.9,2.2,4.9,4.9s-2.2,4.9-4.9,4.9
			H12.7c-1.7,0-2.9,1.1-2.9,2.9v385.1c0,1.699,1.1,2.9,2.9,2.9h586.6c1.7,0,2.9-1.1,2.9-2.9v-385.7c0-1.7-1.101-2.9-2.9-2.9h-40.1
			c-2.7,0-4.9-2.2-4.9-4.9v-35.2H478.4v35.2c0,2.7-2.2,4.9-4.9,4.9H305.4c-2.7,0-4.9-2.2-4.9-4.9c0-2.7,2.2-4.9,4.9-4.9h163.2V85.3
			c0-2.7,2.2-4.9,4.9-4.9h85.7c2.7,0,4.899,2.2,4.899,4.9v35.2h35.2c7.101,0,12.7,5.6,12.7,12.7v385.7
			C612,526,606.4,531.6,599.3,531.6z"/>
		<path d="M306,530.5c-112.6,0-204.2-91.799-204.2-204.699S193.4,121,306,121c2.7,0,4.9,2.2,4.9,4.9c0,2.7-2.2,4.9-4.9,4.9
			c-107.2,0-194.3,87.4-194.3,194.901c0,107.5,87.2,194.898,194.3,194.898c41.6,0,81.8-13.299,116.2-38.6c2.2-1.6,5.3-1.1,6.899,1.1
			c1.601,2.201,1.101,5.301-1.1,6.9C391.9,516.5,349.7,530.5,306,530.5z"/>
		<path d="M424.5,491c-1.5,0-3-0.699-4-2c-1.6-2.199-1.1-5.299,1-6.9c49.3-36.398,78.7-94.799,78.7-156.299
			c0-53.9-21.2-103.8-59.7-140.6c-2-1.9-2-5-0.2-6.9c1.9-2,5-2,6.9-0.2c40.5,38.7,62.7,91.1,62.7,147.7
			c0,64.6-30.9,126-82.7,164.199C426.6,490.6,425.6,491,424.5,491z"/>
	</g>
</g>
<g>
</g>
<g>
</g>
<g>
</g>
<g>
</g>
<g>
</g>
<g>
</g>
<g>
</g>
<g>
</g>
<g>
</g>
<g>
</g>
<g>
</g>
<g>
</g>
<g>
</g>
<g>
</g>
<g>
</g>
</svg>
